# xmcd
#
# Track frame offsets: 
#        150
#        14528
#        30672
#        40054
#        59722
#        95032
#        110223
#        128613
#        137650
#        154851
#        163908
#        186786
#        209404
#
# Disc length: 2995 seconds
#
# Revision: 0
# Processed by: cddbd v1.5.1PL0 Copyright (c) Steve Scherf et al.
# Submitted via: ExactAudioCopy v0.95a5
#
DISCID=be0bb10d
DTITLE=David Landon - Chasin' The Blues
DYEAR=1999
DGENRE=Blues
TTITLE0=I'm Ready
TTITLE1=Blue Suede Shoes
TTITLE2=Teeny Weeny Bit
TTITLE3=Same Old Blues
TTITLE4=Voodoo Chile
TTITLE5=Give My Poor Heart A Break
TTITLE6=Rock Me Baby
TTITLE7=The Music's Hot
TTITLE8=Don't Touch Me
TTITLE9=Galvaston
TTITLE10=Red House
TTITLE11=Woke Up This Morning
TTITLE12=Evil Hearted Woman
EXTD=
EXTT0=
EXTT1=
EXTT2=
EXTT3=
EXTT4=
EXTT5=
EXTT6=
EXTT7=
EXTT8=
EXTT9=
EXTT10=
EXTT11=
EXTT12=
PLAYORDER=
